<?xml version="1.0" encoding="UTF-8"?>
<svg xmlns="http://www.w3.org/2000/svg" viewBox="0 0 512 512" role="img" aria-label="Klaar">
  <defs>
    <clipPath id="arrow-clip">
      <path d="m124.29663 85.687236c-2.99355.0076-5.86619 1.194282-8.00769 3.307736l-36.780056 36.780068c-.688022.81285-1.076891 1.84402-1.099947 2.91673.02981.96621.356577 1.89855.934067 2.66593l36.734656 36.73466.28634.28622c2.1538 2.11542 5.03156 3.30235 8.02941 3.31171 6.403-.00053 11.59352-5.26613 11.59387-11.76173-.003-2.85475-1.02898-5.61102-2.88712-7.7549-.35569-.35425-.79781-.79906-1.17103-1.17104-2.28403-2.27657-20.80229-20.85092-21.40452-21.4539-.21909-.17464-.4413-.66622-.44109-1.05826.00021-.39204.12179-.81492.44109-1.17918 2.35275-2.48628 4.90455-4.90455 7.34811-7.34811l14.93715-14.93716c1.90142-2.1138 2.96575-4.8611 2.9898-7.717388.00011-6.418802-5.15019-11.622148-11.50303-11.621516z"/>
    </clipPath>
  </defs>
  <rect width="512" height="512" rx="101" fill="#fff"/>
  <g transform="matrix(3.5914883 0 0 3.5914883 -76.495857 -208.75458)">
    <path d="m93.385742 112.20319-13.06903 13.06902-.60625.60627c-.68802.81285-1.07689 1.84402-1.09995 2.91673.0298.96621.35658 1.89855.93407 2.66593l36.734658 36.73466.28634.28622c2.1538 2.11542 5.03156 3.30235 8.02941 3.31171 6.403-.00046 11.59352-5.26613 11.59387-11.76173-.003-2.85475-1.02898-5.61102-2.88712-7.7549-.35569-.35425-.79781-.79906-1.17103-1.17104-2.28403-2.27657-20.80229-20.85092-21.40452-21.4539-.21909-.17464-.4413-.66622-.44109-1.05826.00021-.39204.12179-.81492.44109-1.17918 2.35275-2.48628 4.90455-4.90455 7.34811-7.34811z" fill="#137638" clip-path="url(#arrow-clip)"/>
    <path d="m124.49821 85.790668c-2.99355.008-8.85961-1.986227-11.00111.127223l-21.608067 24.601499-12.217233 13.54566-1.416546.29208c-.68802.81285-.428502 3.37706-.451562 4.44977.0298.96621-.0603 2.49871.517192 3.26609.756116.14427-.487002 2.10563 1.424989.9289l11.938825 12.11945 19.041492-17.70662 22.28526-22.28527c1.90142-2.1138 2.96575-4.8611 2.9898-7.717402.00011-6.4188-3.84057-14.802647-10.19341-14.802017z" fill="#3fae54" clip-path="url(#arrow-clip)"/>
    <path d="M57.452604 85.953685c-4.588858 0-8.282184 3.693326-8.282184 8.282184v70.596021c0 4.58887 3.693326 8.28218 8.282184 8.28218h24.019115c4.029946.16738 10.02333-2.37141 10.02393-8.80357-.002-1.72124-.517832-3.40511-1.485027-4.84804-.11705-.17196-.240214-.33972-.369263-.50358l-1.617336-1.61734c-7.124908-8.66967-17.180031-15.10925-23.991472-23.99147-.764531-1.12174-1.180052-2.45082-1.192758-3.81526-.0013-.008-.0027-.0153-.0038-.0268.0027-1.41988.441766-2.80346 1.255952-3.95745 7.566002-7.66696 15.28032-15.28032 22.911273-22.91127 2.443344-2.15928 4.310891-4.239308 4.492593-7.642349-.0053-4.391589-3.307623-8.124573-7.780592-8.795625-.63758-.156257-1.301504-.248812-1.98859-.248812z" fill="#1a1a1a"/>
  </g>
</svg>
